<svg id="Capa_1" enable-background="new 0 0 512 512" height="512" viewBox="0 0 512 512" width="512" xmlns="http://www.w3.org/2000/svg"><g><circle cx="256" cy="256.003" r="113.762"/><path d="m506.722 344.416c-54.424-46.494-54.379-130.373 0-176.827 11.021-9.415 3.522-27.495-10.919-26.358-71.357 5.621-130.649-53.735-125.031-125.031 1.135-14.426-16.93-21.956-26.358-10.919-46.494 54.424-130.373 54.379-176.827 0-9.415-11.021-27.495-3.523-26.359 10.919 2.68 34.008-9.589 67.315-33.648 91.384-24.068 24.058-57.366 36.317-91.384 33.648-14.426-1.138-21.947 16.935-10.918 26.357 54.424 46.494 54.379 130.373 0 176.827-10.98 9.38-3.574 27.497 10.919 26.358 71.358-5.621 130.649 53.735 125.031 125.031-1.137 14.448 16.949 21.933 26.358 10.919 46.494-54.424 130.373-54.379 176.827 0 9.342 10.946 27.501 3.6 26.358-10.919-5.623-71.354 53.735-130.648 125.031-125.031 14.45 1.138 21.934-16.949 10.92-26.358zm-250.722 55.347c-79.274 0-143.76-64.485-143.76-143.76s64.485-143.76 143.76-143.76 143.76 64.485 143.76 143.76-64.485 143.76-143.76 143.76z"/></g></svg>